/* XPM */
static char *_33be0b005fe4aedc9a4dcb5dcadb66aYm0gwyizTGCiLGYM[] = {
/* columns rows colors chars-per-pixel */
"16 16 32 1 ",
"  c None",
". c #05356A",
"X c #09306B",
"o c #09306D",
"O c #063973",
"+ c #08468C",
"@ c #08468D",
"# c #074A96",
"$ c #0E469D",
"% c #0E469E",
"& c #074D99",
"* c #084D9A",
"= c #084E9A",
"- c #084E9C",
"; c #095AB3",
": c #1051B7",
"> c #1053B7",
", c #1153B8",
"< c #1152B9",
"1 c #1153B9",
"2 c #0A63C5",
"3 c #0A63C7",
"4 c #0A64C9",
"5 c #0A66CD",
"6 c #0A69D2",
"7 c #0B6AD4",
"8 c #0B6BD6",
"9 c #0B73E6",
"0 c #0D78EF",
"q c #0C79EF",
"w c #0C79F1",
"e c #0D79F1",
/* pixels */
"                ",
"                ",
"  0eee6 eeee0   ",
"  0eee5 eeeee9  ",
"  0eee5 eeeee4  ",
"  0eee5 eeeee;  ",
"  0eee5 eeee8   ",
"   ***O -**&    ",
"                ",
"  :,,,$ eeeee   ",
"  :,,,$ eeeee8  ",
"  :,,,$ eeeee3  ",
"  :,,,$ eeeee#  ",
"  :,,,$ eeee3   ",
"   oXX  @@@.    ",
"                "
};
