/* XPM */
static char *d15d4dfdefad4234fa1f8c11e9478e1eXOE23j0y9wFrxz32[] = {
/* columns rows colors chars-per-pixel */
"64 64 163 2 ",
"   c None",
".  c #293B55",
"X  c #2C3E5A",
"o  c #2E415D",
"O  c #3F4857",
"+  c #2E4361",
"@  c #2C476B",
"#  c #2E4A6E",
"$  c #314664",
"%  c #344867",
"&  c #354B6C",
"*  c #344E72",
"=  c #384E71",
"-  c #335077",
";  c #395175",
":  c #36537B",
">  c #3C557B",
",  c #3F587E",
"<  c #444E5D",
"1  c #475262",
"2  c #4A5465",
"3  c #4D5769",
"4  c #4E596B",
"5  c #505C6E",
"6  c #525E71",
"7  c #556175",
"8  c #56657D",
"9  c #586579",
"0  c #5C697E",
"q  c #395780",
"w  c #3D5A82",
"e  c #3E5E8A",
"r  c #415C85",
"t  c #425E88",
"y  c #44618D",
"u  c #5D6C83",
"i  c #5F6F89",
"p  c #466592",
"a  c #496794",
"s  c #466897",
"d  c #496896",
"f  c #476998",
"g  c #4B6C9C",
"h  c #606E84",
"j  c #627087",
"k  c #64738B",
"l  c #68778E",
"z  c #667791",
"x  c #677893",
"c  c #6B7B94",
"v  c #6D7E99",
"b  c #4D6FA1",
"n  c #4F71A3",
"m  c #5173A5",
"M  c #5276AA",
"N  c #5579AE",
"B  c #567AB1",
"V  c #6F819B",
"C  c #72839D",
"Z  c #7486A3",
"A  c #7789A4",
"S  c #798AA5",
"D  c #778AA8",
"F  c #7A8DAA",
"G  c #7E91AE",
"H  c #7E92B1",
"J  c #8092AF",
"K  c #8295B4",
"L  c #8599B7",
"P  c #8397B8",
"I  c #869ABA",
"U  c #8A9EBE",
"Y  c #8BA0BF",
"T  c #8A9FC0",
"R  c #8DA3C4",
"E  c #90A5C6",
"W  c #91A6C9",
"Q  c #96ACCE",
"!  c #94AACC",
"~  c #97ADD0",
"^  c #97ADD1",
"/  c #98AED1",
"(  c #98AFD2",
")  c #99AFD2",
"_  c #99AFD3",
"`  c #98AFD3",
"'  c #98AFD2",
"]  c #99B0D2",
"[  c #99B0D3",
"{  c #9AB0D3",
"}  c #9AB1D3",
"|  c #9AB0D4",
" . c #9AB1D4",
".. c #9BB1D5",
"X. c #9BB2D5",
"o. c #9CB3D7",
"O. c #9BB2D6",
"+. c #9CB3D8",
"@. c #9DB4D8",
"#. c #9DB5D9",
"$. c #9EB5D8",
"%. c #9EB5D9",
"&. c #9EB6D9",
"*. c #9EB5DA",
"=. c #9FB6DA",
"-. c #9EB6DA",
";. c #A0B6DB",
":. c #A0B7DC",
">. c #A0B7DD",
",. c #A1B9DD",
"<. c #A1B8DD",
"1. c #A2B9DD",
"2. c #A1B9DE",
"3. c #A1B8DE",
"4. c #A2B9DE",
"5. c #A2BADE",
"6. c #A3BADF",
"7. c #A1B9DE",
"8. c #A3BAE0",
"9. c #A4BCE1",
"0. c #A5BDE2",
"q. c #A5BDE3",
"w. c #A5BCE2",
"e. c #A5BEE3",
"r. c #A6BEE3",
"t. c #A5BEE4",
"y. c #A6BEE4",
"u. c #A7BFE5",
"i. c #A5BDE3",
"p. c #A7C0E7",
"a. c #A7C0E6",
"s. c #A8C0E7",
"d. c #A8C1E7",
"f. c #A9C1E9",
"g. c #A9C2E8",
"h. c #A9C2E9",
"j. c #AAC2E9",
"k. c #AAC3E9",
"l. c #AAC2E8",
"z. c #AAC3EA",
"x. c #ABC3EB",
"c. c #ABC4EB",
"v. c #ACC4EC",
"b. c #ADC5ED",
"n. c #ADC6ED",
"m. c #ADC7ED",
"M. c #ADC6EE",
"N. c #ADC7EE",
"B. c #AEC7EE",
"V. c #AEC7EF",
"C. c #AEC6EE",
"Z. c #ABC4EB",
"A. c #AEC8EF",
"S. c #AEC8EF",
"D. c #AEC7F0",
"F. c #AEC8F0",
"G. c #AFC8F0",
"H. c #AFC9F1",
"J. c #AFC8F0",
"K. c #B0C9F1",
"L. c #B0C9F2",
"P. c #B0CAF2",
"I. c #B0CAF2",
/* pixels */
"                                                                                                                                ",
"                                                                                                                                ",
"                                                                                                                                ",
"                3.o.~ E R I K F Z C c k h 0 7 5 2 < O       1 3 5 7 9 0 h k k c v C A F A K L                                   ",
"                u.3...! W U L J F Z v c k u 9 7 3 2 <       2 5 7 9 0 u j k c v C A F G K I U R E !                             ",
"                f.q.;...! R U L G S C v l j u 9 6 3 1       4 7 9 0 u j k c v C A F G K L U R E ! ` o.                          ",
"                M.f.q.#.` ! R I K G S C v l j 0 7 6 3       6 9 0 h k l c V C A F G K I U R E Q { #.3.q.q.                      ",
"                L.M.s.3.#.~ E R I K F A C c k h 0 7 5       9 0 h k l c V C A F G K I U R E ! { #.3.q.f.M.M.                    ",
"                M.L.M.u.3.o.Q W U L K F Z C c k u 0 7       0 h k l c V C A F G K I U R ! Q { #.3.q.f.M.L.A.                    ",
"                f.M.L.c.q.:...! R U L G S C v c j u 9       u k l c V C A F G K I U R E Q { #.3.q.f.M.L.G.f.q.                  ",
"                q.f.G.G.f.q.#.` ! R U K G S C v l j 0       j l c C C A F G K I U R ! Q { #.3.q.f.M.L.A.f.u.3...                ",
"                3.u.f.G.M.s.8.#.` ! R I K F A C c k h       k v V C A F G K I U R ! Q { #.3.q.f.M.L.A.f.u.3.#.{                 ",
"                +.3.u.M.L.M.s.3.o.~ E R I K F Z C c k       c C C S F G K I U R ! Q ..#.3.q.f.M.L.M.f.u.3.#.` !                 ",
"                ` #.8.p.M.L.M.u.:...! W U L J F Z v c       v C S F G K I U R ! Q ..#.3.q.f.M.L.A.f.u.3.#.` ! W U               ",
"                ! ` #.8.f.G.L.f.q.;...! R U L G S C v       C S F J K I Y R ! Q { #.3.u.f.M.L.M.f.q.3.#.` ! W R U               ",
"                E ! ..=.q.f.G.D.f.9.#.` ! R I K F S C       Z F J K I U R ! Q ..#.3.u.f.M.L.M.f.q.3.#.` ! R R U K               ",
"                R E Q ..3.u.Z.L.M.s.3.o.~ E R I K F Z       S J K I Y R ! Q ..#.3.p.c.A.L.M.f.q.3.#.` ! R R U K H               ",
"                U R E ~ #.8.p.M.L.M.u.3...Q W U L K F       G K I Y R ! Q ..#.3.u.f.A.L.M.f.q.3.#.` ! R R I K H F               ",
"                K U R ! ` #.8.f.M.L.c.q.:...! W U L G       K I Y W ! Q ..#.3.u.f.A.L.M.f.q.3.o.` ! R R I K H F Z               ",
"                H I U R ! ..#.q.f.G.G.f.q.#.` ! R U K       L Y R ! Q ..#.3.u.f.A.L.M.f.q.3.o.~ ! R R I K H F Z C               ",
"                F K I T E ! ..:.u.f.L.M.s.8.#.` E R I       U W ! ` ..#.3.u.f.A.L.M.f.q.3.o.~ ! R R I K G F Z C c               ",
"                A F K I R E ~ +.3.u.M.L.M.u.3.o.Q E R       R ! Q ..#.8.u.c.A.L.M.s.q.3.o.~ ! R T I K H F Z C v                 ",
"                Z D G K U R ! ` #.8.s.M.L.M.u.3...! W       W ~ ..#.3.u.c.A.L.M.f.q.3...~ ! R T I K G F Z C v x                 ",
"                V Z D H P U R ! ..#.9.f.G.G.f.q.#.{ !       ! ..#.8.u.c.A.L.M.f.q.=...~ ! R R I K G F Z C v c k                 ",
"                c V Z F H I T R ! ..=.q.f.G.G.f.9.#.`       ` #.8.p.c.G.L.M.s.q.=...~ ! R T I K G D Z C v x k                   ",
"                x v V A F K I R E ~ ..3.u.Z.L.M.s.3.o.      @.8.p.c.G.L.M.s.q.=...~ ! R T I K G D Z C v x k                     ",
"                k x v Z A F K I R E ~ +.3.u.M.L.M.u.3.      3.p.c.G.L.M.s.9.#...~ ! R U I K G D Z C v x k                       ",
"                i k x v Z D H P U R ! ` #.8.f.M.L.f.q.      q.c.G.L.M.s.9.#...~ ! R U I K G F Z V v x k                         ",
"                u i k c V Z F H I U R ! ..=.q.f.G.G.f.      s.G.L.M.p.8.#...~ ! R U I K G D Z V v x j                           ",
"                8 u i x c C Z F K I R E Q ..3.u.Z.L.M.      M.L.M.s.9.#...~ ! R U I K G D Z V v k                               ",
"                7 8 u j x v Z A F K I R ! ~ +.3.p.M.L.      M.M.s.9.=...~ ! R U I K G D V                                       ",
"                                                                                                                                ",
"                                                                                                                                ",
"                                                                                                                                ",
"                @ @ # * - : q w e e p s g g n n M N B       N B M m n g g a p y r r , > ; & &                                   ",
"                @ # * - : q w e e p s f g b n M N B N       M B N M m n g g a p y r r , > ; = & % $                             ",
"                # * - - : w e t p s f g b n M N B N M       M N B B M m n g g a p y r r , > ; = & % $                           ",
"                * * - : w e e y p s g b n M M B B M m       m M N B B M m n g g a p y r r > > ; = & % $ o                       ",
"                * - : w w e y p s g g n m M B B N M m       b m M N B B M m n g g a p y r r , > ; = & % $ o                     ",
"                - : q w e y p s g g n n M N B N M m b       g m M M N B N M m n g g a p y r r , > ; = & % $ o                   ",
"                : q w e e p s f g b n M N B N M m n g       g b m M M N B B M m n g g a p y r r , > ; = & % $                   ",
"                q w e e p p f g b n M N B B M m n g g       d g b m m M N B N M m n g g a p y r r > > ; = & % $                 ",
"                w e e p p f g b n M M B B M m n g g a       a g g b m m M N B B M m n g g a p y r r , > ; = & %                 ",
"                w e y p s g g n m M B B N M m g g d p       p a g g b m m M N B B M m n g g a y y r r , > ; = & $               ",
"                e y p s f g n n M N B N M m b g d p y       y p d g g b m m M N B N M m n g g a p y r r > > ; = &               ",
"                y p s f g b n M N B N M m n g g a y y       t y p d g g b m m M N B N M m n g g a p y r r > > ; =               ",
"                p p f g b n M N B B M m n g g a p y r       r y y p d g g b m M M N B B M m n g g a p y r r , > ;               ",
"                p s g g n m M B B M M n g g a p y t r       r t y y p d g g b m M M N B B M m n g g a p y r r > >               ",
"                s g g n m M B B N M n g g d p y t r ,       > r t y y p d g g b m M M N B B M m n g g a p y r r ,               ",
"                g g n m M N B N M m b g d p y t r w >       > w r t y y p d g g b m M M N B B M m n g g a y y r r               ",
"                g b n M N B N M m b g g p y y r w > ;       ; > w r t y y p d g g b m M M N B N M m n g g a p y r               ",
"                b n M N B B M m n g g a p y r w > > ;       ; > > w r t y y p d g g b m M M N B N M m n g g a y r               ",
"                n M M B B M M n g g a p y t r , > ; =       = ; > > w r t y y p d g g b m M M N B B M m n g g a                 ",
"                M M B B N M m g g d p y t r w > ; = &       & = ; > > w r t y y p d g g b m M M N B N M m m g d                 ",
"                M N B N M m b g d p y t r w > ; = & %       % & = ; > > w r t y y p d g g b m M M N B B M m n                   ",
"                N B N M m b g g p y y r w > ; ; & & $       $ & & = ; > > w r t y y p d g g b m M M N B B M m                   ",
"                B N M m n g g a y y r w > > ; = & $ +       $ % & & = ; > > w r t y y p d g g b m M M N B N                     ",
"                B M M n g g a p y t r > > ; = & % $ o       + $ % & & = ; > > w r t y y p d g g b m M M N                       ",
"                N M m g g d p y t r , > ; = & % $ + X       o + $ % & & ; ; > > w r t y y p d g g b m m                         ",
"                M m b g d p y t r w > ; = & % $ + o .       X o + $ % & & ; ; > > w r t y y p d g g g                           ",
"                m b g g p y y r w > ; ; & & $ + o X .       . X o + $ % & & = ; > > w r t y y p a                               ",
"                                                                                                                                ",
"                                                                                                                                ",
"                                                                                                                                "
};
