/* XPM */
static char *_4fc31550b1e436dee44a4f6d264b973QKJvrw8I7vx4Dgmc[] = {
/* columns rows colors chars-per-pixel */
"64 64 113 2 ",
"   c None",
".  c black",
"X  c #000101",
"o  c #000102",
"O  c #01050B",
"+  c #01070F",
"@  c #010911",
"#  c #010B17",
"$  c #010C17",
"%  c #010E1C",
"&  c #010F1F",
"*  c #011021",
"=  c #011121",
"-  c #021122",
";  c #011222",
":  c #021225",
">  c #021326",
",  c #021427",
"<  c #031D3B",
"1  c #031F3F",
"2  c #051E43",
"3  c #042142",
"4  c #032548",
"5  c #06234E",
"6  c #052952",
"7  c #08285B",
"8  c #08295C",
"9  c #082E65",
"0  c #053161",
"q  c #063366",
"w  c #05366A",
"e  c #0A3473",
"r  c #0A3474",
"t  c #0A3475",
"y  c #093577",
"u  c #053972",
"i  c #053B75",
"p  c #063B75",
"a  c #053C75",
"s  c #073C76",
"d  c #073E7A",
"f  c #063F7D",
"g  c #06407D",
"h  c #074386",
"j  c #074388",
"k  c #08478E",
"l  c #074890",
"z  c #074B93",
"x  c #084A95",
"c  c #084C98",
"v  c #084D98",
"b  c #084F9E",
"n  c #0951A2",
"m  c #0852A6",
"M  c #0854A5",
"N  c #0957AF",
"B  c #0959B0",
"V  c #095AB3",
"C  c #085BB4",
"Z  c #0A5FBD",
"A  c #095EBE",
"S  c #1050B3",
"D  c #1152B8",
"F  c #1053B8",
"G  c #1153B8",
"H  c #1152B9",
"J  c #1153B9",
"K  c #1153BA",
"L  c #1154B8",
"P  c #1254B8",
"I  c #0A61C1",
"U  c #0A61C3",
"Y  c #0B62C3",
"T  c #0A64C7",
"R  c #0B65C7",
"E  c #0A66CB",
"W  c #0B68D0",
"Q  c #0B69D2",
"!  c #0B6AD3",
"~  c #0C6AD2",
"^  c #0B6BD7",
"/  c #0B6CD6",
"(  c #0B6ED9",
")  c #0C6DDA",
"_  c #0C73E5",
"`  c #0C74E7",
"'  c #0C76EC",
"]  c #0D76EC",
"[  c #0C76ED",
"{  c #0C77ED",
"}  c #0C78EE",
"|  c #0D78EE",
" . c #0D78EF",
".. c #0C7AEF",
"X. c #0D7AEF",
"o. c #0B7AF0",
"O. c #0B7AF2",
"+. c #0C78F0",
"@. c #0C79F0",
"#. c #0D79F0",
"$. c #0C78F1",
"%. c #0D78F1",
"&. c #0C79F1",
"*. c #0D79F1",
"=. c #0E79F1",
"-. c #0D7AF0",
";. c #0D7AF1",
":. c #0D7BF1",
">. c #0E7AF1",
",. c #0D78F2",
"<. c #0D79F2",
"1. c #0C7AF2",
"2. c #0C7AF3",
/* pixels */
"                                                                                                                                ",
"                                                                                                                                ",
"                                                                                                                                ",
"                                                                                                                                ",
"                                                                                                                                ",
"                                                                                                                                ",
"                    *.O.O.O.O.O.O.O.O.O.O.O.O.O.O.              *.O.O.O.O.O.O.O.O.O.O.*.*.                                      ",
"                  *.*.*.*.*.*.*.*.*.*.*.*.*.*.*.*.*.          *.*.*.*.*.*.*.*.*.*.*.*.*.*.*.*.*.                                ",
"                  X.*.*.*.*.*.*.*.*.*.*.*.*.*.*.*.*.g         *.*.*.*.*.*.*.*.*.*.*.*.*.*.*.*.*.*.*.                            ",
"                  X.*.*.*.*.*.*.*.*.*.*.*.*.*.*.*.*.i         *.*.*.*.*.*.*.*.*.*.*.*.*.*.*.*.*.*.*.*.                          ",
"                  X.*.*.*.*.*.*.*.*.*.*.*.*.*.*.*.*.i         *.*.*.*.*.*.*.*.*.*.*.*.*.*.*.*.*.*.*.*.X.                        ",
"                  X.*.*.*.*.*.*.*.*.*.*.*.*.*.*.*.*.i         *.*.*.*.*.*.*.*.*.*.*.*.*.*.*.*.*.*.*.*.*.`                       ",
"                  X.*.*.*.*.*.*.*.*.*.*.*.*.*.*.*.*.i         *.*.*.*.*.*.*.*.*.*.*.*.*.*.*.*.*.*.*.*.*.*.Z                     ",
"                  X.*.*.*.*.*.*.*.*.*.*.*.*.*.*.*.*.i         *.*.*.*.*.*.*.*.*.*.*.*.*.*.*.*.*.*.*.*.*.*._                     ",
"                  X.*.*.*.*.*.*.*.*.*.*.*.*.*.*.*.*.a         *.*.*.*.*.*.*.*.*.*.*.*.*.*.*.*.*.*.*.*.*.*.*.a                   ",
"                  X.*.*.*.*.*.*.*.*.*.*.*.*.*.*.*.*.i         *.*.*.*.*.*.*.*.*.*.*.*.*.*.*.*.*.*.*.*.*.*.*.b                   ",
"                  X.*.*.*.*.*.*.*.*.*.*.*.*.*.*.*.*.i         *.*.*.*.*.*.*.*.*.*.*.*.*.*.*.*.*.*.*.*.*.*.*.C                   ",
"                  X.*.*.*.*.*.*.*.*.*.*.*.*.*.*.*.*.i         *.*.*.*.*.*.*.*.*.*.*.*.*.*.*.*.*.*.*.*.*.*.*.E                   ",
"                  X.*.*.*.*.*.*.*.*.*.*.*.*.*.*.*.*.i         *.*.*.*.*.*.*.*.*.*.*.*.*.*.*.*.*.*.*.*.*.*.*.!                   ",
"                  X.*.*.*.*.*.*.*.*.*.*.*.*.*.*.*.*.a         *.*.*.*.*.*.*.*.*.*.*.*.*.*.*.*.*.*.*.*.*.*.*.Z                   ",
"                  X.*.*.*.*.*.*.*.*.*.*.*.*.*.*.*.*.i         *.*.*.*.*.*.*.*.*.*.*.*.*.*.*.*.*.*.*.*.*.*.*.m                   ",
"                  X.*.*.*.*.*.*.*.*.*.*.*.*.*.*.*.*.i         *.*.*.*.*.*.*.*.*.*.*.*.*.*.*.*.*.*.*.*.*.*.*.w                   ",
"                  X.*.*.*.*.*.*.*.*.*.*.*.*.*.*.*.*.a         *.*.*.*.*.*.*.*.*.*.*.*.*.*.*.*.*.*.*.*.*.*.*.=                   ",
"                  X.*.*.*.*.*.*.*.*.*.*.*.*.*.*.*.*.i         *.*.*.*.*.*.*.*.*.*.*.*.*.*.*.*.*.*.*.*.*.*.n .                   ",
"                  X.*.*.*.*.*.*.*.*.*.*.*.*.*.*.*.*.i         *.*.*.*.*.*.*.*.*.*.*.*.*.*.*.*.*.*.*.*.*.*.=                     ",
"                  X.*.*.*.*.*.*.*.*.*.*.*.*.*.*.*.*.a         *.*.*.*.*.*.*.*.*.*.*.*.*.*.*.*.*.*.*.*.*.i .                     ",
"                  X.*.*.*.*.*.*.*.*.*.*.*.*.*.*.*.*.i         *.*.*.*.*.*.*.*.*.*.*.*.*.*.*.*.*.*.*.*.h .                       ",
"                  X.*.*.*.*.*.*.*.*.*.*.*.*.*.*.*.*.i         *.*.*.*.*.*.*.*.*.*.*.*.*.*.*.*.*.*.*.f .                         ",
"                  X.*.*.*.*.*.*.*.*.*.*.*.*.*.*.*.*.u         *.*.*.*.*.*.*.*.*.*.*.*.*.*.*.*.*.Y 1 .                           ",
"                    X.*.*.*.*.*.*.*.*.*.*.*.*.*.*.) =         ( *.*.*.*.*.*.*.*.*.*.*.*.*.~ k < . .                             ",
"                    # : : : : : : : : : : : : : : O .           , : : : : : : : : : : & + . .                                   ",
"                                                                                                                                ",
"                                                                                                                                ",
"                                                                                                                                ",
"                    P K K K K K K K K K K K K K K P           *.*.*.*.*.*.*.*.*.*.*.*.*.*.*.                                    ",
"                  K K K K K K K K K K K K K K K K K t         *.*.*.*.*.*.*.*.*.*.*.*.*.*.*.*.*.*.                              ",
"                  K K K K K K K G K K G K K G G K K 7         *.*.*.*.*.*.*.*.*.*.*.*.*.*.*.*.*.*.*.                            ",
"                  K K K K K K K G G G G K K K G K K 7         *.*.*.*.*.*.*.*.*.*.*.*.*.*.*.*.*.*.*.*.[                         ",
"                  K K K G G G G G G K K K K G K K K 7         *.*.*.*.*.*.*.*.*.*.*.*.*.*.*.*.*.*.*.*.*.                        ",
"                  K K G G K G G G K K K K K G G K K 7         *.*.*.*.*.*.*.*.*.*.*.*.*.*.*.*.*.*.*.*.*.[                       ",
"                  G K K K K K G G K K G K K K K K K 7         *.*.*.*.*.*.*.*.*.*.*.*.*.*.*.*.*.*.*.*.*.*.T                     ",
"                  G K K K K G G G K K G K K K G K K 7         *.*.*.*.*.*.*.*.*.*.*.*.*.*.*.*.*.*.*.*.*.*.[                     ",
"                  K K K G G K K G G G K K K K G K K 7         *.*.*.*.*.*.*.*.*.*.*.*.*.*.*.*.*.*.*.*.*.*.*.l                   ",
"                  K K K G G K K K G K K K K K G K K 7         *.*.*.*.*.*.*.*.*.*.*.*.*.*.*.*.*.*.*.*.*.*.*.M                   ",
"                  K K G K K K K K K K K K K K K K K 7         *.*.*.*.*.*.*.*.*.*.*.*.*.*.*.*.*.*.*.*.*.*.*.Y                   ",
"                  K K K K K K K K G K K G K K K K K 7         *.*.*.*.*.*.*.*.*.*.*.*.*.*.*.*.*.*.*.*.*.*.*.!                   ",
"                  K G G G K G G G K K G G K K K K G 7         *.*.*.*.*.*.*.*.*.*.*.*.*.*.*.*.*.*.*.*.*.*.*.Y                   ",
"                  K G G K K K K G K K G G G K K K K 7         *.*.*.*.*.*.*.*.*.*.*.*.*.*.*.*.*.*.*.*.*.*.*.B                   ",
"                  G G G G K G G G G K K K K K K K K 7         *.*.*.*.*.*.*.*.*.*.*.*.*.*.*.*.*.*.*.*.*.*.*.j                   ",
"                  G G K K K K K G K K K K K G K K K 7         *.*.*.*.*.*.*.*.*.*.*.*.*.*.*.*.*.*.*.*.*.*.*.4                   ",
"                  G K K K K K K K K G G K G G K G K 7         *.*.*.*.*.*.*.*.*.*.*.*.*.*.*.*.*.*.*.*.*.*.! .                   ",
"                  K K K K K K K G G K K G G G K K K 7         *.*.*.*.*.*.*.*.*.*.*.*.*.*.*.*.*.*.*.*.*.*.0                     ",
"                  K K K K K K K K G G G G K K K K K 7         *.*.*.*.*.*.*.*.*.*.*.*.*.*.*.*.*.*.*.*.*.T .                     ",
"                  K K K G K K K K G K G K G K K K K 7         *.*.*.*.*.*.*.*.*.*.*.*.*.*.*.*.*.*.*.*./ &                       ",
"                  K G K G K K K G K K G K K K K K K 7         *.*.*.*.*.*.*.*.*.*.*.*.*.*.*.*.*.*.*.^ = .                       ",
"                  G G K G K K K K K G G K K K K K K 7         *.*.*.*.*.*.*.*.*.*.*.*.*.*.*.*.*.*.B $ .                         ",
"                  S K K K K K K K K K K K K K K K K 2         X.*.*.*.*.*.*.*.*.*.*.*.*.*.*.[ N 3 .                             ",
"                    9 t t t t t t t t t t t t t e 5 .         q x c c c c c c c c c c l d 6 @ . .                               ",
"                      . . . . . . . . . . . . . . .             . . . . . . . . . . . . .                                       ",
"                                                                                                                                ",
"                                                                                                                                ",
"                                                                                                                                ",
"                                                                                                                                ",
"                                                                                                                                "
};
