/* XPM */
static char *cda33a0b1b3248e98fcc55c8633de04fO8aRQIOs4bWuSWOH[] = {
/* columns rows colors chars-per-pixel */
"16 17 138 2 ",
"   c None",
".  c #2E415E",
"X  c #304564",
"o  c #344968",
"O  c #354969",
"+  c #344A6B",
"@  c #374E71",
"#  c #314E74",
"$  c #395175",
"%  c #3A5277",
"&  c #3A5378",
"*  c #3C5478",
"=  c #3C5479",
"-  c #3D587F",
";  c #4F5B6D",
":  c #515C6F",
">  c #5C697E",
",  c #5C6A7F",
"<  c #395781",
"1  c #3A5882",
"2  c #3F5A82",
"3  c #405B84",
"4  c #405B85",
"5  c #405C85",
"6  c #415C85",
"7  c #415D86",
"8  c #44608A",
"9  c #40608D",
"0  c #41618F",
"q  c #44618C",
"w  c #5F6C82",
"e  c #5B6B84",
"r  c #436391",
"t  c #466390",
"y  c #466491",
"u  c #476492",
"i  c #476592",
"p  c #476593",
"a  c #496896",
"s  c #48699A",
"d  c #486A9B",
"f  c #4A6A9A",
"g  c #4B6A9A",
"h  c #4B6B9A",
"j  c #4C6B9A",
"k  c #4C6B9B",
"l  c #4A6D9E",
"z  c #4C6C9D",
"x  c #4C6D9D",
"c  c #4C6D9E",
"v  c #4D6D9E",
"b  c #4D6E9F",
"n  c #61728B",
"m  c #65748B",
"M  c #697991",
"N  c #6A7991",
"B  c #6B7B93",
"V  c #697A95",
"C  c #6E7E97",
"Z  c #6D7F9B",
"A  c #4C6FA1",
"S  c #4E6FA0",
"D  c #4F71A3",
"F  c #4F72A6",
"G  c #5072A5",
"H  c #5173A7",
"J  c #5074A8",
"K  c #5275A9",
"L  c #5175AA",
"P  c #5275AA",
"I  c #5375AA",
"U  c #5376AA",
"Y  c #5376AB",
"T  c #5377AC",
"R  c #5378AD",
"E  c #5478AE",
"W  c #5579AF",
"Q  c #70839F",
"!  c #71839F",
"~  c #73849E",
"^  c #7284A0",
"/  c #7889A4",
"(  c #788AA5",
")  c #798AA6",
"_  c #798BA6",
"`  c #788BA9",
"'  c #7B8EAC",
"]  c #7E90AD",
"[  c #8295B3",
"{  c #8095B4",
"}  c #8195B4",
"|  c #8296B6",
" . c #8599B7",
".. c #869AB8",
"X. c #869AB9",
"o. c #879BB9",
"O. c #879BBA",
"+. c #889CBD",
"@. c #8A9FC0",
"#. c #8DA2C2",
"$. c #8EA2C3",
"%. c #8EA4C6",
"&. c #90A6C8",
"*. c #91A7C9",
"=. c #92A7C9",
"-. c #91A8CA",
";. c #92A8CA",
":. c #94AACB",
">. c #94AACC",
",. c #95ABCD",
"<. c #95ABCE",
"1. c #96ACCE",
"2. c #97ADD1",
"3. c #99B0D4",
"4. c #9BB2D5",
"5. c #9DB4D8",
"6. c #9EB5DA",
"7. c #9FB6DB",
"8. c #A0B8DD",
"9. c #A1B9DE",
"0. c #A2B9DE",
"q. c #A2BADF",
"w. c #A2BAE0",
"e. c #A3BBE0",
"r. c #A3BCE1",
"t. c #A4BCE1",
"y. c #A6BEE4",
"u. c #A7BFE5",
"i. c #A7BFE6",
"p. c #A8C0E7",
"a. c #A9C2E9",
"s. c #AAC3EA",
"d. c #ABC4EA",
"f. c #ACC4EC",
"g. c #ACC5EC",
"h. c #ACC6EC",
"j. c #ACC6ED",
"k. c #ADC6ED",
/* pixels */
"                                ",
"  7.#.) m :   ; > N )  .        ",
"  f.4.O.~ w   > N ) O.,.0.i.    ",
"  i.a.1.[ C   N ) O.:.0.f.w.    ",
"  2.p.i.=.]   ) O.,.w.f.0.-.    ",
"  +.4.a.0.#.  O.,.t.f.0.-.}     ",
"  ` @.7.f.7.  ,.t.f.0.=.} !     ",
"  V ' %.w.a.  r.f.0.=.} ! n     ",
"  e Z } ,.p.  d.0.-.} ^         ",
"                                ",
"  # 1 r A R   Y Y h 8 = O       ",
"  < 0 l T H   v Y Y k 8 = O     ",
"  0 h Y Y h   u v Y Y k 8 =     ",
"  h Y T v q   4 u v Y Y k 8     ",
"  F E A t -   % 4 u v Y Y h     ",
"  E D u 2 @   O % 5 u v Y Y     ",
"  H a 5 % X   . O & 5 u v       "
};
