/* XPM */
static char *de273230ac9245fcbc7b0cc358ec5e08JPL5Z2y3zwx6rGW2[] = {
/* columns rows colors chars-per-pixel */
"32 32 134 2 ",
"   c None",
".  c #293A54",
"X  c #2C3F5B",
"o  c #2E415E",
"O  c #3F4957",
"+  c #2F4361",
"@  c #2B466A",
"#  c #2F4B6F",
"$  c #324766",
"%  c #344867",
"&  c #344A6B",
"*  c #384E6F",
"=  c #354E72",
"-  c #384F72",
";  c #335077",
":  c #395276",
">  c #36547B",
",  c #3B557A",
"<  c #465161",
"1  c #4C5769",
"2  c #4F5A6C",
"3  c #535F72",
"4  c #566376",
"5  c #5C697E",
"6  c #3D5982",
"7  c #3E5E8A",
"8  c #415B84",
"9  c #435F89",
"0  c #44618C",
"q  c #5D6B81",
"w  c #456593",
"e  c #486694",
"r  c #466897",
"t  c #496997",
"y  c #476999",
"u  c #4B6C9C",
"i  c #616F86",
"p  c #64748C",
"a  c #69778F",
"s  c #657690",
"d  c #6D7C95",
"f  c #6D7E9A",
"g  c #4C6EA0",
"h  c #4F71A3",
"j  c #5072A5",
"k  c #5276AA",
"l  c #5479AE",
"z  c #5579B0",
"x  c #6E809C",
"c  c #73849E",
"v  c #7485A1",
"b  c #7689A5",
"n  c #798AA6",
"m  c #778AA8",
"M  c #7B8DAA",
"N  c #7E90AD",
"B  c #7F92B1",
"V  c #8296B4",
"C  c #8598B6",
"Z  c #869ABA",
"A  c #899EBE",
"S  c #8BA0BF",
"D  c #8A9FC1",
"F  c #8DA2C3",
"G  c #91A7C7",
"H  c #91A7C8",
"J  c #94AACC",
"K  c #97ADD1",
"L  c #98AFD2",
"P  c #99B0D4",
"I  c #9AB1D4",
"U  c #9BB1D4",
"Y  c #9AB1D5",
"T  c #9BB2D5",
"R  c #9BB2D6",
"E  c #9BB2D7",
"W  c #9CB2D6",
"Q  c #9DB3D7",
"!  c #99B0D3",
"~  c #9CB3D8",
"^  c #9DB4D9",
"/  c #9EB4D9",
"(  c #9EB5D9",
")  c #9FB6DB",
"_  c #A0B7DC",
"`  c #A0B7DD",
"'  c #A0B8DC",
"]  c #A0B8DD",
"[  c #A1B8DD",
"{  c #A1B9DD",
"}  c #A1B9DE",
"|  c #A2B9DE",
" . c #A2B9DF",
".. c #A2BADE",
"X. c #A2BADF",
"o. c #A3BBDF",
"O. c #A2BAE0",
"+. c #A2BBE0",
"@. c #A3BBE0",
"#. c #A3BBE1",
"$. c #A4BBE1",
"%. c #A4BCE3",
"&. c #A5BDE3",
"*. c #A6BDE3",
"=. c #A5BEE3",
"-. c #A5BDE4",
";. c #A6BEE4",
":. c #A7BFE6",
">. c #A8C1E6",
",. c #A8C0E7",
"<. c #A8C1E7",
"1. c #A9C1E8",
"2. c #A9C1E9",
"3. c #A9C2E8",
"4. c #A9C2E9",
"5. c #AAC2E9",
"6. c #AAC3E9",
"7. c #AAC3EA",
"8. c #ABC3EA",
"9. c #AAC4EA",
"0. c #ABC4EB",
"q. c #ABC5EB",
"w. c #ABC4EC",
"e. c #ACC5EC",
"r. c #ACC5ED",
"t. c #ADC5ED",
"y. c #ADC6ED",
"u. c #ADC6EE",
"i. c #AEC6EE",
"p. c #AEC7EF",
"a. c #AEC8EF",
"s. c #AFC8EF",
"d. c #AEC8F0",
"f. c #AFC8F0",
/* pixels */
"                                                                ",
"      _ J F V b d i 4 1 O     2 4 q p d c n M                   ",
"      :.) J A N c a q 3 <     4 q p d c M V A G J               ",
"      p.:.W G Z M c p 5 2     q p d c M V A H L | <.%.          ",
"      w.p.$.L F C n d p 4     p d c M V A H ! | <.s.9.          ",
"      #.p.p.| J F V b d q     d c M V A H ! | <.s.9.#.K         ",
"      E %.p.5.) J A N v p     v M V A H ! | <.f.9.#.E J         ",
"      J ~ :.p.:.W H Z M d     M V A J ! | 5.f.9.| E J A         ",
"      F J ) 5.p.%.! F C v     C A J ! | 5.f.5.| E H A V         ",
"      V F K | w.p.| K F N     S J E | 5.s.5.| E H A V m         ",
"      M Z F L #.p.5._ J Z     J E | 5.f.5.| ! H A B m x         ",
"      v M Z H E :.p.<.) F     E | 5.f.5.| L H A B b x p         ",
"      d v B A J ) <.p.:.J     | 5.f.5.| ! H A B b x s           ",
"      p f b V D J _ 5.p.)     5.f.5.| L H A B b x s             ",
"      q p f m V F L #.p.%.    s.5.| L F A B b x p               ",
"                                                                ",
"                                                                ",
"      @ = ; 6 7 w u h k k     l j u e 0 8 , &                   ",
"      # ; > 7 0 r g k l j     l l j u e 0 8 , * $               ",
"      = > 6 0 r u h l l u     k l l j u e 0 8 , * % o           ",
"      > 6 7 r u h k l j u     h k l l j u e 0 8 , * %           ",
"      6 7 w y h k l k g e     u h k l l j u e 0 8 , * $         ",
"      7 w y g k z k h u 0     e u h k l l j u e 0 8 , *         ",
"      w r g k l l h u e 8     0 e u h k l l j u e 0 8 ,         ",
"      r u h l l j u e 0 ,     8 0 e u h k z l j u e 0 8         ",
"      u h k l j u e 0 8 :     6 8 0 e u h k z l j u e 0         ",
"      h k z k g t 0 8 , -     , 6 8 0 e u h k l l j u e         ",
"      k z k h u e 8 , : &     - , 6 8 0 e u h k z l j t         ",
"      z k h u e 9 6 : & +     & - , 6 8 0 e u h k l k           ",
"      l j u e 0 6 , - $ X     $ & - , 6 8 0 e u h j             ",
"      j u e 0 8 , - & + .     o $ & - , 6 8 0 e e               ",
"                                                                "
};
