/* XPM */
static char *_8865a4cec2b441c8b05049d43054e8doW1s7LESRi2bBt0M[] = {
/* columns rows colors chars-per-pixel */
"32 32 54 1 ",
"  c None",
". c #000407",
"X c #000509",
"o c #000609",
"O c #02070C",
"+ c #020B19",
"@ c #011429",
"# c #021E3A",
"$ c #032347",
"% c #03274F",
"& c #053161",
"* c #043366",
"= c #053972",
"- c #063D7A",
"; c #063D7C",
": c #0C3A80",
"> c #0D3F8D",
", c #0D3F8E",
"< c #064387",
"1 c #0D408D",
"2 c #0D408E",
"3 c #074C94",
"4 c #074E9C",
"5 c #0851A2",
"6 c #0959B1",
"7 c #095CB6",
"8 c #095DB7",
"9 c #095DB8",
"0 c #1152B8",
"q c #1153B8",
"w c #1152B9",
"e c #1153B9",
"r c #1153BA",
"t c #0A64C6",
"y c #0B6AD3",
"u c #0B6CD6",
"i c #0B6DD9",
"p c #0C6EDC",
"a c #0C72E2",
"s c #0C72E4",
"d c #0C73E6",
"f c #0C73E7",
"g c #0D78EF",
"h c #0C79EF",
"j c #0D79EF",
"k c #0B79F2",
"l c #0D79F0",
"z c #0C78F1",
"x c #0D78F1",
"c c #0C79F1",
"v c #0D79F1",
"b c #0D7AF1",
"n c #0C79F2",
"m c #0D7AF2",
/* pixels */
"                                ",
"                                ",
"                                ",
"     vvvvvvvv   vvvvvvk         ",
"     vvvvvvvv  gvvvvvvvvv       ",
"     vvvvvvvv  gvvvvvvvvvg      ",
"     vvvvvvvv  gvvvvvvvvvvp     ",
"     vvvvvvvv  gvvvvvvvvvvv     ",
"     vvvvvvvv  gvvvvvvvvvvv4    ",
"     vvvvvvvv  gvvvvvvvvvvv<    ",
"     vvvvvvvv  gvvvvvvvvvvv&    ",
"     vvvvvvvv  gvvvvvvvvvvy     ",
"     vvvvvvvv  gvvvvvvvvvv*     ",
"     vvvvvvvv  gvvvvvvvvv;      ",
"     vvvvvvvs  uvvvvvva6$       ",
"      OOOOOO.   XOOOOX          ",
"                                ",
"     rrrqqrrr   vvvvvvvv        ",
"     rrrrqqqr  gvvvvvvvvv       ",
"     rrrrrrqr  gvvvvvvvvvv      ",
"     rrrrrrqr  gvvvvvvvvvvs     ",
"     rqqrrrqr  gvvvvvvvvvvv     ",
"     rrrrrrrr  gvvvvvvvvvvv3    ",
"     rrrrrrrr  gvvvvvvvvvvv-    ",
"     rrrrrrrr  gvvvvvvvvvvv%    ",
"     rrrrrrrr  gvvvvvvvvvvt     ",
"     rrrqrrrr  gvvvvvvvvvs@     ",
"     rrrqqrqr  gvvvvvvvvi#      ",
"     2>22>22:   7999975=+       ",
"                                ",
"                                ",
"                                "
};
